<?xml version="1.0" encoding="UTF-8"?>
<!-- Generated by Pixelmator Pro 3.6.17 -->
<svg width="362" height="395" viewBox="0 0 362 395" xmlns="http://www.w3.org/2000/svg">
    <g id="Gruppe-Kopie">
        <linearGradient id="linearGradient1" x1="1.233392" y1="-9.017041" x2="360.634841" y2="-9.017041" gradientUnits="userSpaceOnUse">
            <stop offset="0" stop-color="#ee476f" stop-opacity="1"/>
            <stop offset="1" stop-color="#fcbb42" stop-opacity="1"/>
        </linearGradient>
        <path id="Pfad" fill="url(#linearGradient1)" stroke="none" d="M 360.634766 256.81543 L 329.384766 256.81543 L 329.384766 139.526245 C 329.384766 122.835205 320.404541 107.279297 305.947388 98.933838 L 204.370605 40.29126 C 189.915466 31.94165 171.954834 31.945679 157.495605 40.287109 L 55.920898 98.933838 C 41.463684 107.279297 32.483398 122.835205 32.483398 139.526245 L 32.483398 256.81543 L 1.233398 256.81543 L 1.233398 139.526245 C 1.233398 111.706421 16.201233 85.778687 40.295898 71.866699 L 141.870605 13.224121 C 165.969299 -0.683716 195.905029 -0.679688 219.995605 13.228271 L 321.572266 71.866699 C 345.666992 85.778687 360.634766 111.706421 360.634766 139.526245 L 360.634766 256.81543 Z"/>
        <path id="path1" fill="#537dbe" stroke="none" d="M 345.009766 247.785034 C 338.328613 247.785034 332.509033 251.422363 329.384766 256.81543 C 332.509033 262.208618 338.328613 265.845825 345.009766 265.845825 C 351.691162 265.845825 357.510742 262.208618 360.634766 256.81543 C 357.510742 251.422363 351.691162 247.785034 345.009766 247.785034 Z"/>
        <linearGradient id="linearGradient2" x1="38.13976" y1="248.482145" x2="330.434029" y2="248.482145" gradientUnits="userSpaceOnUse">
            <stop offset="0" stop-color="#3dbdb3" stop-opacity="1"/>
            <stop offset="1" stop-color="#537dbe" stop-opacity="1"/>
        </linearGradient>
        <path id="path2" fill="url(#linearGradient2)" stroke="none" d="M 180.93512 393.554565 C 167.424011 393.554565 153.918945 390.075562 141.870605 383.117554 L 40.295898 324.479004 L 55.920898 297.411987 L 157.495605 356.054565 C 171.954834 364.404175 189.915466 364.400146 204.370605 356.058594 L 305.947388 297.411987 C 320.404541 289.066406 329.384766 273.51062 329.384766 256.81543 L 360.634766 256.81543 C 360.634766 284.639404 345.666992 310.567139 321.572266 324.474976 L 219.995605 383.121582 C 207.951355 390.075562 194.440186 393.554565 180.93512 393.554565 Z"/>
        <path id="path3" fill="#8756a3" stroke="none" d="M 40.23053 306.432251 C 36.889893 312.218384 37.130066 319.076904 40.238586 324.479004 C 46.471313 324.470093 52.531006 321.248779 55.871643 315.462646 C 59.21228 309.676392 58.972168 302.817871 55.863586 297.415771 C 49.63092 297.424805 43.571167 300.646118 40.23053 306.432251 Z"/>
        <linearGradient id="linearGradient3" x1="55.529825" y1="82.771696" x2="324.272453" y2="82.771696" gradientUnits="userSpaceOnUse">
            <stop offset="0" stop-color="#8756a3" stop-opacity="1"/>
            <stop offset="0.6" stop-color="#ee476f" stop-opacity="1"/>
            <stop offset="1" stop-color="#fcbb42" stop-opacity="1"/>
        </linearGradient>
        <path id="path4" fill="url(#linearGradient3)" stroke="none" d="M 40.295898 324.479004 C 16.201233 310.567139 1.233398 284.639404 1.233398 256.81543 C 1.233398 216.389893 34.121155 183.50415 74.544739 183.50415 C 79.679871 183.50415 84.743713 184.029053 89.693665 185.070679 C 95.784973 132.124756 140.651917 91.10498 194.920349 91.10498 C 253.330994 91.10498 300.850952 138.622925 300.850952 197.033569 L 269.600891 197.033569 C 269.600891 155.855225 236.098694 122.35498 194.920349 122.35498 C 153.741943 122.35498 120.239746 155.855225 120.239746 197.033569 C 120.266174 204.59375 116.689514 211.405273 110.675537 215.498779 C 104.628967 219.616577 96.934509 220.442627 90.092468 217.716309 C 85.156738 215.750977 79.926025 214.75415 74.544739 214.75415 C 51.351379 214.75415 32.483398 233.62207 32.483398 256.81543 C 32.483398 273.51062 41.463684 289.066406 55.920898 297.416016 L 40.295898 324.479004 Z M 88.989746 197.32251 C 88.989746 197.342773 88.989746 197.367188 88.989746 197.391602 C 88.989746 197.367188 88.989746 197.342773 88.989746 197.32251 Z"/>
        <linearGradient id="linearGradient4" x1="54.490949" y1="173.075244" x2="324.432778" y2="173.075244" gradientUnits="userSpaceOnUse">
            <stop offset="0" stop-color="#8756a3" stop-opacity="1"/>
            <stop offset="1" stop-color="#537dbe" stop-opacity="1"/>
        </linearGradient>
        <path id="path5" fill="url(#linearGradient4)" stroke="none" d="M 89.189148 338.740967 C 73.958801 338.740967 57.711243 334.529541 40.295898 324.479004 L 55.920898 297.411987 C 100.93634 323.400757 132.526123 295.991943 179.197693 247.765991 C 210.76709 215.140625 243.410706 181.408569 285.227905 181.408569 C 326.807129 181.408569 360.634766 215.234253 360.634766 256.81543 L 329.384766 256.81543 C 329.384766 232.466553 309.576904 212.658569 285.227905 212.658569 C 256.655334 212.658569 229.938232 240.266846 201.652527 269.494507 C 170.961975 301.212402 134.639954 338.740967 89.189148 338.740967 Z"/>
    </g>
</svg>
